<?xml version="1.0" standalone="no"?>
<!DOCTYPE svg PUBLIC "-//W3C//DTD SVG 20010904//EN"
 "http://www.w3.org/TR/2001/REC-SVG-20010904/DTD/svg10.dtd">
<svg version="1.0" xmlns="http://www.w3.org/2000/svg"
 width="942.000000pt" height="942.000000pt" viewBox="0 0 942.000000 942.000000"
 preserveAspectRatio="xMidYMid meet">
<metadata>
Created by potrace 1.11, written by Peter Selinger 2001-2013
</metadata>
<g transform="translate(0.000000,942.000000) scale(0.100000,-0.100000)"
fill="#000000" stroke="none">
<path d="M1175 6753 c-643 -1115 -1171 -2035 -1173 -2044 -3 -16 2192 -3835
2223 -3867 9 -10 45 6 186 88 l174 100 3 -200 2 -200 2243 0 2242 1 1174 2035
c645 1119 1171 2040 1168 2047 -3 6 -532 923 -1175 2037 l-1169 2025 -2364 2
-2364 3 -1170 -2027z m6225 -245 c454 -786 874 -1515 933 -1618 l108 -187
-933 -1617 -933 -1616 -1869 2 -1868 3 -929 1609 c-511 885 -929 1614 -929
1619 0 5 419 736 932 1623 l931 1614 1866 0 1866 -1 825 -1431z"/>
</g>
</svg>
